<svg xmlns="http://www.w3.org/2000/svg" width="20" height="20" fill="none" viewBox="132 46.5 20 20"><g filter="url(#filter0_i_21_544)"><path fill="#51525c" fill-rule="evenodd" d="M145.333 47.333c.461 0 .834.373.834.834V49c.396.003.742.011 1.043.036.468.038.899.12 1.303.326a3.33 3.33 0 0 1 1.457 1.457c.206.404.288.835.327 1.303.036.452.036 1.005.036 1.676v7.069c0 .67 0 1.224-.036 1.675-.039.469-.121.9-.327 1.304a3.33 3.33 0 0 1-1.457 1.456c-.404.206-.835.288-1.303.327-.451.037-1.005.037-1.675.037h-7.069c-.671 0-1.225 0-1.676-.037-.468-.038-.899-.12-1.303-.327a3.34 3.34 0 0 1-1.457-1.456c-.206-.405-.288-.835-.326-1.304-.037-.45-.037-1.005-.037-1.675v-7.07c0-.67 0-1.224.037-1.675.038-.468.12-.898.326-1.303.32-.627.83-1.137 1.457-1.457.404-.206.835-.288 1.303-.326a14 14 0 0 1 1.043-.036v-.834a.834.834 0 0 1 1.667 0V49h5v-.833c0-.46.373-.834.833-.834m-7.5 3.335v.832a.834.834 0 0 0 1.667 0v-.833h5v.833a.833.833 0 1 0 1.667 0v-.832c.371.003.663.01.907.03.366.03.552.084.683.15.313.16.568.415.728.729.066.13.121.317.15.682.031.375.032.86.032 1.574V54h-13.334v-.167c0-.713.001-1.199.032-1.574.03-.365.084-.552.15-.682a1.67 1.67 0 0 1 .728-.729c.131-.066.318-.12.683-.15.245-.02.536-.027.907-.03" clip-rule="evenodd"/></g><defs><filter id="filter0_i_21_544" width="44" height="46" x="120" y="34.5" color-interpolation-filters="sRGB" filterUnits="userSpaceOnUse"><feFlood flood-opacity="0" result="BackgroundImageFix"/><feBlend in="SourceGraphic" in2="BackgroundImageFix" result="shape"/><feColorMatrix in="SourceAlpha" result="hardAlpha" values="0 0 0 0 0 0 0 0 0 0 0 0 0 0 0 0 0 0 127 0"/><feOffset dy="2"/><feGaussianBlur stdDeviation="2"/><feComposite in2="hardAlpha" k2="-1" k3="1" operator="arithmetic"/><feColorMatrix values="0 0 0 0 0 0 0 0 0 0 0 0 0 0 0 0 0 0 0.06 0"/><feBlend in2="shape" result="effect1_innerShadow_21_544"/></filter></defs></svg>