<svg xmlns="http://www.w3.org/2000/svg" width="392" height="342" fill="none" viewBox="524 278 392 342"><path fill="#fff" d="M0 0h1440v954H0z"/><g clip-path="url(#clip7_21_569)"><rect width="392" height="556" x="524" y="278" fill="#f5f5f5" rx="20"/><rect width="392" height="556" x="524" y="278" fill="url(#pattern2_21_569)" fill-opacity=".15" rx="20"/><path fill="url(#paint12_linear_21_569)" d="M524 434.531h392v399H524z"/><g filter="url(#filter9_d_21_569)"><path fill="url(#paint13_linear_21_569)" d="M545.666 339.531h227c6.627 0 12 5.373 12 12v18c0 6.628-5.373 12-12 12h-215c-6.627 0-12-5.372-12-12z"/></g><g filter="url(#filter10_d_21_569)"><path fill="#fff" d="M644.666 417.531c0-6.627 5.373-12 12-12h233v160c0 6.628-5.373 12-12 12h-221c-6.627 0-12-5.372-12-12z"/><path stroke="url(#paint14_linear_21_569)" d="M656.666 406.031h232.5v159.5c0 6.352-5.149 11.5-11.5 11.5h-221c-6.351 0-11.5-5.148-11.5-11.5v-148c0-6.351 5.149-11.5 11.5-11.5Z"/><path fill="#a0a0ab" d="M666.617 440.755q-1.152 0-2.016-.688t-1.344-2.048q-.464-1.375-.464-3.424t.464-3.392q.48-1.344 1.344-2 .864-.672 2.016-.672t2 .672 1.312 2.016q.48 1.329.48 3.376 0 2.049-.48 3.424-.464 1.36-1.312 2.048t-2 .688m0-1.472q.592 0 1.056-.464.463-.464.72-1.488.256-1.04.256-2.736t-.256-2.704-.72-1.456q-.463-.447-1.056-.448-.592 0-1.056.448t-.736 1.456q-.256 1.008-.256 2.704t.256 2.736q.272 1.024.736 1.488.463.465 1.056.464m5.909 1.248v-1.52h2.592v-8.192h-2.112v-1.168a8 8 0 0 0 1.44-.368q.624-.223 1.136-.544h1.392v10.272h2.288v1.52z"/><rect width="57.29" height="34" x="815.376" y="416.531" fill="#f4f4f5" rx="10"/><g filter="url(#filter11_dddd_21_569)"><circle cx="832.021" cy="433.531" r="4.645" fill="#2bb33f"/><circle cx="832.021" cy="433.531" r="6.145" stroke="#fff" stroke-width="3"/></g><path stroke="#e4e4e7" d="M872.666 462.531h-211"/><path fill="#a0a0ab" d="M666.617 498.755q-1.152 0-2.016-.688t-1.344-2.048q-.464-1.375-.464-3.424t.464-3.392q.48-1.344 1.344-2 .864-.672 2.016-.672t2 .672 1.312 2.016q.48 1.329.48 3.376 0 2.049-.48 3.424-.464 1.36-1.312 2.048t-2 .688m0-1.472q.592 0 1.056-.464.463-.464.72-1.488.256-1.04.256-2.736t-.256-2.704-.72-1.456q-.463-.447-1.056-.448-.592 0-1.056.448t-.736 1.456q-.256 1.008-.256 2.704t.256 2.736q.272 1.024.736 1.488.463.465 1.056.464m5.253 1.248v-1.072q1.744-1.551 2.912-2.832 1.168-1.296 1.744-2.4.592-1.104.592-2.064 0-.64-.224-1.12a1.52 1.52 0 0 0-.656-.752q-.432-.272-1.104-.272-.688 0-1.264.384a5 5 0 0 0-1.056.912l-1.04-1.024q.751-.831 1.584-1.296.848-.464 2.016-.464 1.072 0 1.872.448.8.432 1.232 1.232.448.785.448 1.856 0 1.137-.56 2.304-.56 1.152-1.536 2.336a30 30 0 0 1-2.224 2.368q.464-.048.976-.08.528-.048.944-.048h2.96v1.584z"/><rect width="57.29" height="34" x="815.376" y="474.531" fill="#f4f4f5" rx="10"/><g filter="url(#filter12_dddd_21_569)"><circle cx="832.021" cy="491.531" r="4.645" fill="#ee8802"/><circle cx="832.021" cy="491.531" r="6.145" stroke="#fff" stroke-width="3"/></g><path stroke="#e4e4e7" d="M872.666 520.531h-211"/><path fill="#a0a0ab" d="M666.617 556.755q-1.152 0-2.016-.688t-1.344-2.048q-.464-1.375-.464-3.424t.464-3.392q.48-1.343 1.344-2 .864-.672 2.016-.672t2 .672 1.312 2.016q.48 1.329.48 3.376 0 2.049-.48 3.424-.464 1.36-1.312 2.048t-2 .688m0-1.472q.592 0 1.056-.464.463-.463.72-1.488.256-1.04.256-2.736t-.256-2.704-.72-1.456q-.463-.447-1.056-.448-.592 0-1.056.448t-.736 1.456q-.256 1.008-.256 2.704t.256 2.736q.272 1.024.736 1.488.463.465 1.056.464m8.837 1.472q-.928 0-1.648-.224a4.8 4.8 0 0 1-1.248-.592 6 6 0 0 1-.944-.816l.896-1.184q.528.513 1.2.896.672.384 1.584.384.672 0 1.168-.224.496-.24.768-.672.288-.432.288-1.056 0-.64-.32-1.12-.304-.495-1.072-.752-.752-.272-2.08-.272v-1.376q1.168 0 1.824-.256.672-.271.96-.736a1.9 1.9 0 0 0 .304-1.056q0-.768-.48-1.216-.48-.464-1.328-.464-.672 0-1.264.304a4.4 4.4 0 0 0-1.088.784l-.96-1.152a6 6 0 0 1 1.536-1.024 4.2 4.2 0 0 1 1.84-.4q1.056 0 1.872.368.816.352 1.28 1.024t.464 1.648q0 1.008-.56 1.712-.544.705-1.472 1.056v.064q.672.177 1.216.576.56.384.88.992.32.609.32 1.392 0 1.056-.544 1.824a3.5 3.5 0 0 1-1.424 1.168q-.896.4-1.968.4"/><rect width="57.29" height="34" x="815.376" y="532.531" fill="#f4f4f5" rx="10"/><g filter="url(#filter13_dddd_21_569)"><circle cx="832.021" cy="549.531" r="4.645" fill="#9c9c9c"/><circle cx="832.021" cy="549.531" r="6.145" stroke="#fff" stroke-width="3"/></g></g></g><rect width="391" height="555" x="524.5" y="278.5" stroke="#e4e4e7" rx="19.5"/><defs><filter id="filter9_d_21_569" width="267" height="70" x="531.666" y="329.531" color-interpolation-filters="sRGB" filterUnits="userSpaceOnUse"><feFlood flood-opacity="0" result="BackgroundImageFix"/><feColorMatrix in="SourceAlpha" result="hardAlpha" values="0 0 0 0 0 0 0 0 0 0 0 0 0 0 0 0 0 0 127 0"/><feOffset dy="4"/><feGaussianBlur stdDeviation="7"/><feColorMatrix values="0 0 0 0 0 0 0 0 0 0 0 0 0 0 0 0 0 0 0.06 0"/><feBlend in2="BackgroundImageFix" result="effect1_dropShadow_21_569"/><feBlend in="SourceGraphic" in2="effect1_dropShadow_21_569" result="shape"/></filter><filter id="filter10_d_21_569" width="273" height="200" x="630.666" y="395.531" color-interpolation-filters="sRGB" filterUnits="userSpaceOnUse"><feFlood flood-opacity="0" result="BackgroundImageFix"/><feColorMatrix in="SourceAlpha" result="hardAlpha" values="0 0 0 0 0 0 0 0 0 0 0 0 0 0 0 0 0 0 127 0"/><feOffset dy="4"/><feGaussianBlur stdDeviation="7"/><feColorMatrix values="0 0 0 0 0 0 0 0 0 0 0 0 0 0 0 0 0 0 0.06 0"/><feBlend in2="BackgroundImageFix" result="effect1_dropShadow_21_569"/><feBlend in="SourceGraphic" in2="effect1_dropShadow_21_569" result="shape"/></filter><filter id="filter11_dddd_21_569" width="19.006" height="23.651" x="822.518" y="424.957" color-interpolation-filters="sRGB" filterUnits="userSpaceOnUse"><feFlood flood-opacity="0" result="BackgroundImageFix"/><feColorMatrix in="SourceAlpha" result="hardAlpha" values="0 0 0 0 0 0 0 0 0 0 0 0 0 0 0 0 0 0 127 0"/><feOffset/><feGaussianBlur stdDeviation=".465"/><feColorMatrix values="0 0 0 0 0 0 0 0 0 0 0 0 0 0 0 0 0 0 0.1 0"/><feBlend in2="BackgroundImageFix" result="effect1_dropShadow_21_569"/><feColorMatrix in="SourceAlpha" result="hardAlpha" values="0 0 0 0 0 0 0 0 0 0 0 0 0 0 0 0 0 0 127 0"/><feOffset dy=".929"/><feGaussianBlur stdDeviation=".929"/><feColorMatrix values="0 0 0 0 0 0 0 0 0 0 0 0 0 0 0 0 0 0 0.09 0"/><feBlend in2="effect1_dropShadow_21_569" result="effect2_dropShadow_21_569"/><feColorMatrix in="SourceAlpha" result="hardAlpha" values="0 0 0 0 0 0 0 0 0 0 0 0 0 0 0 0 0 0 127 0"/><feOffset dy="2.787"/><feGaussianBlur stdDeviation=".929"/><feColorMatrix values="0 0 0 0 0 0 0 0 0 0 0 0 0 0 0 0 0 0 0.05 0"/><feBlend in2="effect2_dropShadow_21_569" result="effect3_dropShadow_21_569"/><feColorMatrix in="SourceAlpha" result="hardAlpha" values="0 0 0 0 0 0 0 0 0 0 0 0 0 0 0 0 0 0 127 0"/><feOffset dy="5.574"/><feGaussianBlur stdDeviation=".929"/><feColorMatrix values="0 0 0 0 0 0 0 0 0 0 0 0 0 0 0 0 0 0 0.01 0"/><feBlend in2="effect3_dropShadow_21_569" result="effect4_dropShadow_21_569"/><feBlend in="SourceGraphic" in2="effect4_dropShadow_21_569" result="shape"/></filter><filter id="filter12_dddd_21_569" width="19.006" height="23.651" x="822.518" y="482.957" color-interpolation-filters="sRGB" filterUnits="userSpaceOnUse"><feFlood flood-opacity="0" result="BackgroundImageFix"/><feColorMatrix in="SourceAlpha" result="hardAlpha" values="0 0 0 0 0 0 0 0 0 0 0 0 0 0 0 0 0 0 127 0"/><feOffset/><feGaussianBlur stdDeviation=".465"/><feColorMatrix values="0 0 0 0 0 0 0 0 0 0 0 0 0 0 0 0 0 0 0.1 0"/><feBlend in2="BackgroundImageFix" result="effect1_dropShadow_21_569"/><feColorMatrix in="SourceAlpha" result="hardAlpha" values="0 0 0 0 0 0 0 0 0 0 0 0 0 0 0 0 0 0 127 0"/><feOffset dy=".929"/><feGaussianBlur stdDeviation=".929"/><feColorMatrix values="0 0 0 0 0 0 0 0 0 0 0 0 0 0 0 0 0 0 0.09 0"/><feBlend in2="effect1_dropShadow_21_569" result="effect2_dropShadow_21_569"/><feColorMatrix in="SourceAlpha" result="hardAlpha" values="0 0 0 0 0 0 0 0 0 0 0 0 0 0 0 0 0 0 127 0"/><feOffset dy="2.787"/><feGaussianBlur stdDeviation=".929"/><feColorMatrix values="0 0 0 0 0 0 0 0 0 0 0 0 0 0 0 0 0 0 0.05 0"/><feBlend in2="effect2_dropShadow_21_569" result="effect3_dropShadow_21_569"/><feColorMatrix in="SourceAlpha" result="hardAlpha" values="0 0 0 0 0 0 0 0 0 0 0 0 0 0 0 0 0 0 127 0"/><feOffset dy="5.574"/><feGaussianBlur stdDeviation=".929"/><feColorMatrix values="0 0 0 0 0 0 0 0 0 0 0 0 0 0 0 0 0 0 0.01 0"/><feBlend in2="effect3_dropShadow_21_569" result="effect4_dropShadow_21_569"/><feBlend in="SourceGraphic" in2="effect4_dropShadow_21_569" result="shape"/></filter><filter id="filter13_dddd_21_569" width="19.006" height="23.651" x="822.518" y="540.957" color-interpolation-filters="sRGB" filterUnits="userSpaceOnUse"><feFlood flood-opacity="0" result="BackgroundImageFix"/><feColorMatrix in="SourceAlpha" result="hardAlpha" values="0 0 0 0 0 0 0 0 0 0 0 0 0 0 0 0 0 0 127 0"/><feOffset/><feGaussianBlur stdDeviation=".465"/><feColorMatrix values="0 0 0 0 0 0 0 0 0 0 0 0 0 0 0 0 0 0 0.1 0"/><feBlend in2="BackgroundImageFix" result="effect1_dropShadow_21_569"/><feColorMatrix in="SourceAlpha" result="hardAlpha" values="0 0 0 0 0 0 0 0 0 0 0 0 0 0 0 0 0 0 127 0"/><feOffset dy=".929"/><feGaussianBlur stdDeviation=".929"/><feColorMatrix values="0 0 0 0 0 0 0 0 0 0 0 0 0 0 0 0 0 0 0.09 0"/><feBlend in2="effect1_dropShadow_21_569" result="effect2_dropShadow_21_569"/><feColorMatrix in="SourceAlpha" result="hardAlpha" values="0 0 0 0 0 0 0 0 0 0 0 0 0 0 0 0 0 0 127 0"/><feOffset dy="2.787"/><feGaussianBlur stdDeviation=".929"/><feColorMatrix values="0 0 0 0 0 0 0 0 0 0 0 0 0 0 0 0 0 0 0.05 0"/><feBlend in2="effect2_dropShadow_21_569" result="effect3_dropShadow_21_569"/><feColorMatrix in="SourceAlpha" result="hardAlpha" values="0 0 0 0 0 0 0 0 0 0 0 0 0 0 0 0 0 0 127 0"/><feOffset dy="5.574"/><feGaussianBlur stdDeviation=".929"/><feColorMatrix values="0 0 0 0 0 0 0 0 0 0 0 0 0 0 0 0 0 0 0.01 0"/><feBlend in2="effect3_dropShadow_21_569" result="effect4_dropShadow_21_569"/><feBlend in="SourceGraphic" in2="effect4_dropShadow_21_569" result="shape"/></filter><linearGradient id="paint12_linear_21_569" x1="720" x2="720" y1="434.531" y2="833.531" gradientUnits="userSpaceOnUse"><stop stop-color="#f7f7f7" stop-opacity="0"/><stop offset="1" stop-color="#fff"/></linearGradient><linearGradient id="paint13_linear_21_569" x1="665.166" x2="665.166" y1="339.531" y2="381.531" gradientUnits="userSpaceOnUse"><stop stop-color="#373737"/><stop offset="1"/></linearGradient><linearGradient id="paint14_linear_21_569" x1="767.166" x2="767.166" y1="405.531" y2="577.531" gradientUnits="userSpaceOnUse"><stop stop-color="#dcdcdc"/><stop offset="1" stop-color="#f4f4f4"/></linearGradient><clipPath id="clip7_21_569"><rect width="392" height="556" x="524" y="278" fill="#fff" rx="20"/></clipPath><pattern id="pattern2_21_569" width="1" height="1" patternTransform="translate(524 278)scale(15.12)" patternUnits="userSpaceOnUse" preserveAspectRatio="none" viewBox="0 0 252 252"><circle id="pattern2_21_569_inner" cx="18" cy="18" r="18" fill="#878787"/></pattern></defs></svg>